<svg xmlns="http://www.w3.org/2000/svg" width="1000" height="500" viewBox="0 0 1000 500">
<rect width="100%" height="100%" fill="white"/>
<text x="500.0" y="34" font-family="Arial,sans-serif" font-size="21" text-anchor="middle">Accuracy Comparison of ML Models</text>
<line x1="80" y1="395.0" x2="970" y2="395.0" stroke="#dddddd"/>
<text x="68" y="400.0" font-family="Arial,sans-serif" font-size="14" text-anchor="end">0.0</text>
<line x1="80" y1="357.1" x2="970" y2="357.1" stroke="#dddddd"/>
<text x="68" y="362.0689655172414" font-family="Arial,sans-serif" font-size="14" text-anchor="end">0.1</text>
<line x1="80" y1="319.1" x2="970" y2="319.1" stroke="#dddddd"/>
<text x="68" y="324.13793103448273" font-family="Arial,sans-serif" font-size="14" text-anchor="end">0.2</text>
<line x1="80" y1="281.2" x2="970" y2="281.2" stroke="#dddddd"/>
<text x="68" y="286.2068965517241" font-family="Arial,sans-serif" font-size="14" text-anchor="end">0.3</text>
<line x1="80" y1="243.3" x2="970" y2="243.3" stroke="#dddddd"/>
<text x="68" y="248.2758620689655" font-family="Arial,sans-serif" font-size="14" text-anchor="end">0.4</text>
<line x1="80" y1="205.3" x2="970" y2="205.3" stroke="#dddddd"/>
<text x="68" y="210.34482758620692" font-family="Arial,sans-serif" font-size="14" text-anchor="end">0.5</text>
<line x1="80" y1="167.4" x2="970" y2="167.4" stroke="#dddddd"/>
<text x="68" y="172.4137931034483" font-family="Arial,sans-serif" font-size="14" text-anchor="end">0.6</text>
<line x1="80" y1="129.5" x2="970" y2="129.5" stroke="#dddddd"/>
<text x="68" y="134.48275862068968" font-family="Arial,sans-serif" font-size="14" text-anchor="end">0.7</text>
<line x1="80" y1="91.6" x2="970" y2="91.6" stroke="#dddddd"/>
<text x="68" y="96.551724137931" font-family="Arial,sans-serif" font-size="14" text-anchor="end">0.8</text>
<line x1="80" y1="65" x2="80" y2="395" stroke="#222"/>
<line x1="80" y1="395" x2="970" y2="395" stroke="#222"/>
<text x="24" y="230.0" font-family="Arial,sans-serif" font-size="16" text-anchor="middle" transform="rotate(-90 24 230.0)">Accuracy</text>
<rect x="96.3" y="124.8" width="115.7" height="270.2" fill="#287db5"/>
<text x="154.16666666666669" y="417" font-family="Arial,sans-serif" font-size="14" text-anchor="middle" transform="rotate(-45 154.16666666666669 417)">Logistic Regression</text>
<rect x="244.7" y="115.0" width="115.7" height="280.0" fill="#287db5"/>
<text x="302.5" y="417" font-family="Arial,sans-serif" font-size="14" text-anchor="middle" transform="rotate(-45 302.5 417)">Decision Tree</text>
<rect x="393.0" y="85.3" width="115.7" height="309.7" fill="#287db5"/>
<text x="450.83333333333337" y="417" font-family="Arial,sans-serif" font-size="14" text-anchor="middle" transform="rotate(-45 450.83333333333337 417)">Random Forest</text>
<rect x="541.3" y="126.0" width="115.7" height="269.0" fill="#287db5"/>
<text x="599.1666666666666" y="417" font-family="Arial,sans-serif" font-size="14" text-anchor="middle" transform="rotate(-45 599.1666666666666 417)">SVM</text>
<rect x="689.7" y="95.5" width="115.7" height="299.5" fill="#287db5"/>
<text x="747.5000000000001" y="417" font-family="Arial,sans-serif" font-size="14" text-anchor="middle" transform="rotate(-45 747.5000000000001 417)">KNN</text>
<rect x="838.0" y="121.2" width="115.7" height="273.8" fill="#287db5"/>
<text x="895.8333333333334" y="417" font-family="Arial,sans-serif" font-size="14" text-anchor="middle" transform="rotate(-45 895.8333333333334 417)">Naive Bayes</text>
<text x="500.0" y="490" font-family="Arial,sans-serif" font-size="16" text-anchor="middle">Machine Learning Models</text>
</svg>